Coordinates
version=1
nRows=26
nColumns=27
inDegrees=yes

Units are S.I. units (second, meters, Newtons, ...)
If the header above contains a line with 'inDegrees', this indicates whether rotational values are in degrees (yes) or radians (no).

endheader
time	pelvis_rotation	pelvis_tilt	pelvis_list	pelvis_tx	pelvis_ty	pelvis_tz	hip_flexion_r	hip_adduction_r	hip_rotation_r	knee_angle_r	knee_rotation_r	knee_adduction_r	knee_angle_r_beta	ankle_angle_r	subtalar_angle_r	mtp_angle_r	hip_flexion_l	hip_adduction_l	hip_rotation_l	knee_angle_l	knee_rotation_l	knee_adduction_l	knee_angle_l_beta	ankle_angle_l	subtalar_angle_l	mtp_angle_l
      4.65500000	      2.78798220	    -34.53576840	      6.24867956	     -0.03048841	      0.56886500	     -1.15872152	    113.49918267	    -46.23246824	      2.63211413	     91.22284274	     -9.51128772	      9.73451624	      1.59213896	     17.08393577	     16.14079116	      0.00000000	    104.03900105	    -41.51167608	     -8.46972821	     84.67647341	     -9.19815036	     -9.74046523	      1.47788326	     12.16546860	     29.74824769	      0.00000000
      4.66000000	      3.45930875	    -34.37558339	      6.64218269	     -0.02995724	      0.56768098	     -1.15898375	    114.00023946	    -47.01535552	      2.94951692	     91.48808232	     -9.73873419	      9.86069128	      1.59676826	     17.17918792	     16.40209810	      0.00000000	    103.96646874	    -40.94462314	     -8.92370867	     84.83857750	     -9.56089788	     -9.86218302	      1.48071251	     12.30568658	     29.72255196	      0.00000000
      4.66500000	      3.06864060	    -34.54816971	      6.61983737	     -0.03068955	      0.56619804	     -1.15892084	    114.48527929	    -46.45825931	      3.49439625	     91.69106746	     -9.52225336	      9.73644580	      1.60031102	     17.19598950	     16.26558462	      0.00000000	    104.27116816	    -41.37449321	     -8.57050661	     85.07671839	     -9.24210468	     -9.74229603	      1.48486885	     12.38254800	     29.62871160	      0.00000000
      4.67000000	      3.49680734	    -34.47364652	      6.49250096	     -0.03029468	      0.56516635	     -1.15910539	    114.44398291	    -47.16567282	      3.07975291	     91.85178310	     -9.74681154	      9.86122006	      1.60311604	     17.26092540	     16.48739731	      0.00000000	    104.73129899	    -40.90868409	     -8.34363872	     85.28747645	     -9.58227419	     -9.86271409	      1.48854727	     12.41539906	     29.64418315	      0.00000000
      4.67500000	      3.40087596	    -34.54812376	      6.64471864	     -0.03046647	      0.56385472	     -1.15912890	    114.99457593	    -46.97854170	      3.53674733	     92.07733210	     -9.74868903	      9.86115404	      1.60705261	     17.27649960	     16.45367927	      0.00000000	    104.84627212	    -41.11010440	     -8.46195780	     85.48309811	     -9.59683080	     -9.86318664	      1.49196152	     12.49265625	     29.65465249	      0.00000000
      4.68000000	      3.03187234	    -34.64661201	      6.60105010	     -0.03110845	      0.56231135	     -1.15903882	    115.38051919	    -46.47914430	      4.03364701	     92.29491853	     -9.53994878	      9.73792251	      1.61085021	     17.30694095	     16.35678524	      0.00000000	    105.12555784	    -41.52082170	     -8.08145667	     85.72646101	     -9.29337100	     -9.74440514	      1.49620900	     12.49970452	     29.55838272	      0.00000000
      4.68500000	      3.40732225	    -34.61604669	      6.63248780	     -0.03072249	      0.56125156	     -1.15917003	    115.59095180	    -47.02279083	      3.89875513	     92.48141230	     -9.75595705	      9.86147093	      1.61410514	     17.38963784	     16.51864181	      0.00000000	    105.42218030	    -41.18499240	     -8.11720828	     85.90978924	     -9.61757810	     -9.86385738	      1.49940868	     12.59859629	     29.63243938	      0.00000000
      4.69000000	      3.07312084	    -34.76802190	      6.54471321	     -0.03141020	      0.55971002	     -1.15908415	    115.97259025	    -46.56713280	      4.31619047	     92.68853072	     -9.55194324	      9.73871555	      1.61772004	     17.39466964	     16.44395279	      0.00000000	    105.81963143	    -41.52905237	     -7.64310556	     86.15642570	     -9.32747807	     -9.74511318	      1.50371330	     12.63587703	     29.53958620	      0.00000000
      4.69500000	      3.42128623	    -34.76095191	      6.36287956	     -0.03100208	      0.55855966	     -1.15917819	    115.97020913	    -47.20002676	      3.87007890	     92.86905957	     -9.76455311	      9.86227859	      1.62087086	     17.49975148	     16.57964038	      0.00000000	    106.38950265	    -41.17052102	     -7.35269287	     86.39527598	     -9.63382729	     -9.86449790	      1.50788202	     12.67491393	     29.59050720	      0.00000000
      4.70000000	      3.36013195	    -34.76272654	      6.60611489	     -0.03110245	      0.55708063	     -1.15913035	    116.57583893	    -47.01139414	      4.48187915	     93.13669204	     -9.76555547	      9.86245235	      1.62554193	     17.54715579	     16.59536022	      0.00000000	    106.36951109	    -41.38681636	     -7.56945298	     86.58895403	     -9.64637757	     -9.86516681	      1.51126234	     12.74401690	     29.63933425	      0.00000000
      4.70500000	      3.37449120	    -34.80191567	      6.55504061	     -0.03119203	      0.55567125	     -1.15910890	    116.84695677	    -47.06982037	      4.60691554	     93.35284796	     -9.76927921	      9.86285704	      1.62931456	     17.59681730	     16.62596178	      0.00000000	    106.73566180	    -41.41332941	     -7.31287809	     86.82171364	     -9.65498085	     -9.86545631	      1.51532477	     12.79176393	     29.65644946	      0.00000000
      4.71000000	      3.35628786	    -34.83897846	      6.58117870	     -0.03128574	      0.55419935	     -1.15905085	    117.22042028	    -47.03871786	      4.86857806	     93.59266941	     -9.77252695	      9.86288692	      1.63350024	     17.65243140	     16.63074897	      0.00000000	    107.01162914	    -41.50748210	     -7.17666310	     87.04629889	     -9.66411205	     -9.86593505	      1.51924452	     12.84162106	     29.69120548	      0.00000000
      4.71500000	      3.32404398	    -34.86271747	      6.62158219	     -0.03132431	      0.55271077	     -1.15897201	    117.59736934	    -46.98957736	      5.15224590	     93.84085787	     -9.77595146	      9.86313166	      1.63783194	     17.70164570	     16.62901490	      0.00000000	    107.25342098	    -41.63629809	     -7.07038623	     87.27301213	     -9.67290203	     -9.86661211	      1.52320141	     12.88483216	     29.74505639	      0.00000000
      4.72000000	      3.34831239	    -34.90756361	      6.53336571	     -0.03141004	      0.55116853	     -1.15891916	    117.85575590	    -47.06795921	      5.25543692	     94.07783930	     -9.77968120	      9.86408962	      1.64196805	     17.78518575	     16.70741971	      0.00000000	    107.69853626	    -41.64528182	     -6.74009958	     87.52602635	     -9.68164867	     -9.86647209	      1.52761734	     12.92117354	     29.72376388	      0.00000000
      4.72500000	      3.02550983	    -34.92289264	      6.51419628	     -0.03189544	      0.54949607	     -1.15876154	    118.18493161	    -46.61524903	      5.74295575	     94.31756607	     -9.59454636	      9.74354615	      1.64615207	     17.80397689	     16.59361609	      0.00000000	    107.89710225	    -42.01660505	     -6.38050814	     87.76286094	     -9.42958664	     -9.75183528	      1.53175088	     13.00045760	     29.73048782	      0.00000000
      4.73000000	      3.43515723	    -34.91251841	      6.47209023	     -0.03142987	      0.54810747	     -1.15877284	    118.40875987	    -47.22985708	      5.59526786	     94.56406813	     -9.78646464	      9.86477896	      1.65045434	     17.90908475	     16.73367167	      0.00000000	    108.36610271	    -41.66328156	     -6.22504357	     87.99954050	     -9.69356706	     -9.86813480	      1.53588172	     12.99883367	     29.79406346	      0.00000000
      4.73500000	      3.34741429	    -34.93025666	      6.53702688	     -0.03141396	      0.54652516	     -1.15865179	    118.82337243	    -47.08331786	      5.94877358	     94.82823957	     -9.78920691	      9.86529024	      1.65506500	     17.94687590	     16.70485447	      0.00000000	    108.56669891	    -41.87367668	     -6.16864097	     88.22985243	     -9.70192200	     -9.86899465	      1.53990142	     13.04780096	     29.87942507	      0.00000000
      4.74000000	      3.35243378	    -34.93576993	      6.54579110	     -0.03138582	      0.54494022	     -1.15856269	    119.15758181	    -47.08045715	      6.20293042	     95.08906564	     -9.79224591	      9.86577016	      1.65961728	     18.01204954	     16.68896467	      0.00000000	    108.85834818	    -41.95871278	     -5.99309017	     88.47269067	     -9.70887193	     -9.86964192	      1.54413975	     13.08698683	     29.91063288	      0.00000000
      4.74500000	      3.34550284	    -34.94130319	      6.54145734	     -0.03130728	      0.54331885	     -1.15844286	    119.48343324	    -47.07706390	      6.44588230	     95.35768799	     -9.79544255	      9.86610134	      1.66430562	     18.07020974	     16.68769474	      0.00000000	    109.15992643	    -42.04424056	     -5.78095785	     88.71404853	     -9.71529237	     -9.87023971	      1.54835224	     13.11982897	     29.97028438	      0.00000000
      4.75000000	      3.07500333	    -35.02125257	      6.43320648	     -0.03174211	      0.54155221	     -1.15829072	    119.76321285	    -46.70247464	      6.79281849	     95.59458124	     -9.62422962	      9.74815558	      1.66844019	     18.12732904	     16.61966945	      0.00000000	    109.58373602	    -42.32831281	     -5.24736599	     88.98351404	     -9.48666977	     -9.75723430	      1.55305530	     13.17229841	     29.98936440	      0.00000000
      4.75500000	      3.43890147	    -34.94162657	      6.51779826	     -0.03115162	      0.54007701	     -1.15824504	    120.09460224	    -47.18910063	      6.89676070	     95.88100362	     -9.80241462	      9.86710640	      1.67343920	     18.21832975	     16.70735589	      0.00000000	    109.81769540	    -42.08872502	     -5.30048992	     89.20843195	     -9.72650367	     -9.87150095	      1.55698086	     13.20301677	     30.05151062	      0.00000000
      4.76000000	      3.43189971	    -34.93233172	      6.48617546	     -0.03099125	      0.53847579	     -1.15814197	    120.36386727	    -47.19677882	      7.10095220	     96.14018457	     -9.80523096	      9.86773089	      1.67796276	     18.28017332	     16.70049102	      0.00000000	    110.12842270	    -42.17017981	     -5.06116559	     89.45506985	     -9.73332295	     -9.87221443	      1.56128550	     13.23902917	     30.08674961	      0.00000000
      4.76500000	      3.40275771	    -34.93069111	      6.51274771	     -0.03086557	      0.53683722	     -1.15802393	    120.71518407	    -47.13076099	      7.39959057	     96.40925722	     -9.80803559	      9.86841007	      1.68265897	     18.32448015	     16.63265334	      0.00000000	    110.38640912	    -42.30369477	     -4.90519029	     89.70117714	     -9.73973653	     -9.87311288	      1.56558088	     13.28503714	     30.18975193	      0.00000000
      4.77000000	      3.16111036	    -34.98412042	      6.35994218	     -0.03114644	      0.53515595	     -1.15785040	    120.88351816	    -46.82945915	      7.64866764	     96.63895559	     -9.64742581	      9.75102677	      1.68666796	     18.40738700	     16.66770168	      0.00000000	    110.81760629	    -42.52715654	     -4.32133114	     89.95107420	     -9.52610465	     -9.76287854	      1.56994241	     13.32816769	     30.12903653	      0.00000000
      4.77500000	      3.52271065	    -34.94580989	      6.43267247	     -0.03044896	      0.53353613	     -1.15785888	    121.27678567	    -47.30521787	      7.79922536	     96.94313912	     -9.81503081	      9.86917336	      1.69197696	     18.46393010	     16.72770379	      0.00000000	    111.13524640	    -42.29989221	     -4.31560895	     90.22331355	     -9.74836106	     -9.87413175	      1.57469388	     13.38053345	     30.26754089	      0.00000000
      4.78000000	      3.21629724	    -34.94599661	      6.39624977	     -0.03072462	      0.53186275	     -1.15765735	    121.51582599	    -46.84557948	      8.20645505	     97.18124792	     -9.65850910	      9.75348732	      1.69613275	     18.53355207	     16.59686487	      0.00000000	    111.34828623	    -42.63726788	     -3.94177451	     90.44729071	     -9.54588514	     -9.76548974	      1.57860302	     13.44319112	     30.23189592	      0.00000000
